<?xml version="1.0" encoding="utf-8"?>
<!-- Generator: Adobe Illustrator 22.0.0, SVG Export Plug-In . SVG Version: 6.00 Build 0)  -->
<svg version="1.1" id="Layer_1" xmlns="http://www.w3.org/2000/svg" xmlns:xlink="http://www.w3.org/1999/xlink" x="0px" y="0px"
	 viewBox="0 0 184.1 77.1" style="enable-background:new 0 0 184.1 77.1;" xml:space="preserve">
<style type="text/css">
	.st0{fill:#FFFFFF;}
	.st1{clip-path:url(#SVGID_2_);fill:none;stroke:#EA1947;stroke-width:2;}
</style>
<g>
	<polygon class="st0" points="0.1,14.4 7.9,14.4 13.7,32.9 13.8,32.9 19.6,14.4 27.5,14.4 27.5,38.8 22.8,38.8 22.8,18.7 22.7,18.7 
		16.1,38.8 11.4,38.8 4.8,18.7 4.8,18.7 4.8,38.8 0.1,38.8 	"/>
	<rect x="43.2" y="14.4" class="st0" width="4.9" height="24.4"/>
	<path class="st0" d="M77,18.9c-0.8-0.3-1.6-0.6-2.4-0.8c-0.8-0.2-1.7-0.3-2.6-0.3c-0.4,0-0.9,0.1-1.3,0.2c-0.5,0.1-0.9,0.3-1.2,0.5
		c-0.4,0.3-0.7,0.6-0.9,1.1c-0.2,0.4-0.4,1-0.4,1.6c0,0.7,0.3,1.3,0.8,1.7c0.5,0.4,1.2,0.8,2,1.1c0.8,0.3,1.7,0.7,2.6,1
		s1.8,0.8,2.6,1.3c0.8,0.6,1.5,1.3,2,2.1c0.5,0.9,0.8,2,0.8,3.3c0,1.3-0.2,2.5-0.7,3.4c-0.5,0.9-1.2,1.7-2,2.3s-1.8,1-2.9,1.3
		s-2.3,0.4-3.5,0.4c-0.7,0-1.3,0-1.8-0.1c-0.5,0-1-0.1-1.5-0.2c-0.5-0.1-0.9-0.2-1.4-0.3s-1-0.2-1.6-0.4l0.5-4.4
		c0.8,0.5,1.7,0.8,2.7,1.1s1.9,0.4,2.9,0.4c0.5,0,1-0.1,1.5-0.2c0.5-0.1,1-0.3,1.4-0.6s0.8-0.6,1-1C73.9,33,74,32.5,74,32
		c0-0.8-0.3-1.4-0.8-1.9s-1.2-0.9-2-1.2c-0.8-0.3-1.7-0.7-2.6-1s-1.8-0.8-2.6-1.3c-0.8-0.5-1.5-1.2-2-2.1c-0.5-0.8-0.8-1.9-0.8-3.3
		s0.2-2.5,0.7-3.5s1.1-1.7,1.9-2.3c0.8-0.6,1.7-1,2.7-1.3s2.1-0.4,3.1-0.4c2.1,0,4.1,0.3,5.8,0.9L77,18.9z"/>
	<path class="st0" d="M111.6,38.5c-0.9,0.2-1.8,0.4-2.7,0.5c-0.9,0.2-1.9,0.2-2.8,0.2c-2,0-3.8-0.3-5.4-0.8s-3.1-1.3-4.2-2.3
		c-1.2-1-2.1-2.3-2.7-3.8c-0.7-1.5-1-3.3-1-5.4s0.3-4,0.9-5.6s1.5-3,2.7-4.1s2.6-1.9,4.2-2.5c1.7-0.6,3.5-0.9,5.6-0.9
		c0.8,0,1.7,0.1,2.7,0.2c1,0.2,1.9,0.4,2.8,0.8l-0.4,4.1c-0.9-0.5-1.8-0.9-2.7-1.1c-0.9-0.2-1.7-0.2-2.6-0.2c-1.3,0-2.4,0.2-3.4,0.7
		s-1.9,1.1-2.6,1.9s-1.2,1.7-1.6,2.8c-0.4,1.1-0.6,2.2-0.6,3.5c0,1.2,0.2,2.4,0.6,3.4c0.4,1.1,0.9,2,1.6,2.8s1.6,1.4,2.6,1.8
		c1,0.4,2.2,0.7,3.5,0.7c1,0,2-0.1,3-0.3s1.8-0.4,2.4-0.7L111.6,38.5z"/>
	<polygon class="st0" points="125.7,14.4 130.6,14.4 130.6,24.3 140.4,24.3 140.4,14.4 145.3,14.4 145.3,38.8 140.4,38.8 
		140.4,28.1 130.6,28.1 130.6,38.8 125.7,38.8 	"/>
	<g>
		<g>
			<defs>
				<rect id="SVGID_1_" x="77.8" y="0.4" width="28.8" height="2"/>
			</defs>
			<clipPath id="SVGID_2_">
				<use xlink:href="#SVGID_1_"  style="overflow:visible;"/>
			</clipPath>
			<line class="st1" x1="77.8" y1="1.4" x2="106.5" y2="1.4"/>
		</g>
	</g>
	<polygon class="st0" points="174,14.4 168.4,14.4 158.9,38.8 164,38.8 166.1,33.2 167.5,29.4 171.1,19.3 171.1,19.3 174.7,29.4 
		171.1,29.4 168.8,33.2 176,33.2 178.1,38.8 183.6,38.8 	"/>
	<g>
		<path class="st0" d="M0.4,53.4h5.2c3.7,0,6.4,1,8.1,2.9c1.6,1.9,2.4,4.4,2.4,7.5c0,3.7-1.2,6.4-3.4,8.1c-2.2,1.6-5.1,2.4-8.6,2.4
			H0.4V53.4z M2.5,72.6h1.7c6.4,0.1,9.6-2.8,9.8-8.8c0-3.2-0.9-5.4-2.5-6.7c-1.6-1.2-3.6-1.9-6-1.8h-3V72.6z"/>
		<path class="st0" d="M38.6,53.4h10.3v1.8h-8.2v7.5h7.8v1.8h-7.8v8.1h8.6v1.8H38.6V53.4z"/>
		<path class="st0" d="M75.6,72.9c1.3,0,2.5-0.3,3.4-1s1.3-1.8,1.3-3.2c0-1-0.5-1.9-1.5-2.6c-0.4-0.4-1-0.7-1.5-1
			c-0.6-0.3-1.2-0.6-1.8-1c-0.6-0.3-1.2-0.7-1.7-1.1c-0.6-0.4-1.1-0.8-1.6-1.2c-1-0.9-1.5-1.9-1.5-3.3c0-1.7,0.7-3,1.9-4
			c1.2-0.9,2.8-1.4,4.7-1.4c0.5,0,1.2,0,1.9,0.1c0.7,0.1,1.5,0.3,2.2,0.6l-0.3,1.9c-1-0.5-2.3-0.8-3.8-0.8c-0.5,0-1.1,0-1.6,0.2
			c-0.5,0.1-1,0.3-1.5,0.6c-0.4,0.3-0.8,0.6-1,1.1c-0.3,0.5-0.4,1.1-0.4,1.7c0,0.5,0.1,1,0.4,1.4s0.6,0.8,1.1,1.1s1,0.7,1.6,1
			s1.1,0.7,1.7,1c1.3,0.6,2.4,1.4,3.3,2.3c0.5,0.4,0.8,1,1.1,1.6c0.3,0.6,0.4,1.3,0.4,2.1c0,2.1-0.8,3.6-2.2,4.5
			c-1.4,0.9-3,1.4-4.7,1.4c-2,0-3.6-0.3-4.7-0.9l0.2-2.1C72.2,72.5,73.7,72.9,75.6,72.9z"/>
		<path class="st0" d="M104.3,53.4h2.1v20.9h-2.1V53.4z"/>
		<path class="st0" d="M143.6,64.8h-4.9V63h6.9v10.4c-2.1,0.9-4.2,1.3-6.5,1.3c-3.3,0-5.9-1-7.7-3c-1.9-1.9-2.8-4.5-2.8-7.8
			c0-3.2,1-5.9,2.9-7.8c1.9-2,4.4-3,7.7-3c0.9,0,1.8,0.1,2.9,0.2c1.1,0.2,2,0.4,2.7,0.8l-0.2,1.9c-0.8-0.4-1.7-0.8-2.6-0.9
			c-0.9-0.1-1.9-0.2-2.8-0.2c-2.7,0-4.8,0.9-6.3,2.5c-1.5,1.7-2.2,3.8-2.2,6.5s0.7,4.8,2.2,6.5c1.4,1.7,3.5,2.5,6.3,2.5
			c0.7,0,1.5-0.1,2.4-0.2s1.5-0.3,2.1-0.6L143.6,64.8L143.6,64.8z"/>
		<path class="st0" d="M167.6,53.4h2.6l10.7,18.4h0.1V53.4h2.1v20.9h-2.8l-10.5-18.1h-0.1v18.1h-2.1V53.4z"/>
	</g>
</g>
</svg>
