<svg xmlns="http://www.w3.org/2000/svg" xmlns:xlink="http://www.w3.org/1999/xlink" viewBox="0 0 244 137.6"><defs><style>.cls-1{fill:url(#linear-gradient);}.cls-2{fill:url(#linear-gradient-3);}.cls-3{fill:url(#linear-gradient-4);}.cls-4{fill:url(#linear-gradient-5);}.cls-5{fill:url(#linear-gradient-6);}.cls-6{fill:url(#linear-gradient-7);}</style><linearGradient id="linear-gradient" x1="-63.21" y1="-20.27" x2="450.96" y2="386.07" gradientUnits="userSpaceOnUse"><stop offset="0" stop-color="#f7b27d"/><stop offset="0.11" stop-color="#efa975"/><stop offset="0.39" stop-color="#de9664"/><stop offset="0.69" stop-color="#d38b59"/><stop offset="1" stop-color="#d08756"/></linearGradient><linearGradient id="linear-gradient-3" x1="-45.27" y1="-42.97" x2="468.9" y2="363.37" xlink:href="#linear-gradient"/><linearGradient id="linear-gradient-4" x1="-28.26" y1="-64.5" x2="485.92" y2="341.84" xlink:href="#linear-gradient"/><linearGradient id="linear-gradient-5" x1="-35.83" y1="-54.92" x2="478.34" y2="351.42" xlink:href="#linear-gradient"/><linearGradient id="linear-gradient-6" x1="11.01" y1="-114.19" x2="525.19" y2="292.15" xlink:href="#linear-gradient"/><linearGradient id="linear-gradient-7" x1="4.57" y1="-106.05" x2="518.75" y2="300.29" xlink:href="#linear-gradient"/></defs><title>Asset 2</title><g id="Layer_2" data-name="Layer 2"><g id="Layer_1-2" data-name="Layer 1"><rect class="cls-1" x="60.79" y="114.6" width="122.41" height="23"/><rect class="cls-1" x="60.79" y="114.6" width="122.41" height="23"/><polygon class="cls-2" points="60.79 0 0 0 47.42 71.13 77.66 25.3 60.79 0"/><polygon class="cls-3" points="77.8 25.09 61.07 0 60.79 0 77.66 25.3 77.8 25.09"/><polygon class="cls-4" points="100.66 32.22 61.48 91.6 122 91.39 152.4 45.8 122 0.21 100.66 32.22"/><polygon class="cls-5" points="183.21 0 152.53 46.01 182.93 91.6 244 0 183.21 0"/><polygon class="cls-6" points="182.93 0 152.4 45.8 152.53 46.01 183.21 0 182.93 0"/></g></g></svg>